<svg xmlns="http://www.w3.org/2000/svg" xml:space="preserve" viewBox="0 0 512 512">
  <circle cx="256.4" cy="256" r="256" fill="#dc2e27"/>
    <path fill="#f7dc15" d="m316 131.2 12.8 21.3-16.3 18.7 24.2-5.6 12.8 21.3 2.2-24.7 24.2-5.6-22.8-9.7 2.2-24.7-16.3 18.7-23-9.7zm-144.9 22.4-23 70.8H73.7l60.2 43.7-23 70.7 60.2-43.7 60.2 43.7-23-70.7 60.2-43.8h-74.4l-23-70.7zM395 191.2l3.5 24.5-22.3 10.9 24.4 4.3 3.5 24.5 11.6-21.9 24.4 4.2-17.2-17.7 11.6-21.9-22.2 10.9-17.3-17.8zm-41.2 169.4L338.3 380l-23.2-8.8 13.6 20.7-15.5 19.4 23.9-6.6 13.6 20.7 1.1-24.8 23.9-6.6-23.2-8.7 1.3-24.7zm55-70.4L402 314l-24.8.9 20.6 13.9-6.8 23.8 19.5-15.3 20.6 13.8-8.5-23.3 19.5-15.3-24.8.9-8.5-23.2z"/>
</svg>