<svg xmlns="http://www.w3.org/2000/svg" viewBox="0 0 60 60">
    <path fill="#fecc00" d="M4 15a30.3 30.3 0 0 0 0 30h52a30.3 30.3 0 0 0 0-30H4z"/>
    <path fill="#d00" d="M4 15h52a30 30 0 0 0-52 0zm52 30H4a30 30 0 0 0 52 0z"/>
    <path fill="#fecc00" d="M34.1 21.9c0-.5-.2-1-.6-1.4l-.9-.6-.1-.1-1.1-.2v1.9l2.7.4zm-4-.3v-1.9l-1.4.2-.9.6a2 2 0 0 0-.6 1.5l2.9-.4zm4.7.5.8.3.3-1c.1-.3-.1-.7-.4-.7l-1.1-.3c.3.4.5 1 .4 1.7zm4.5 11.2h.2v-.1l-.2.1zm-13.6-11 .9-.2c-.2-.7 0-1.4.5-1.9l-1.4.3c-.3.1-.5.4-.4.7l.4 1.1zm-3.8 11-.3-.2v.3l.3-.1z"/>
    <path fill="#ccc" d="M39.4 31.2v.7l1.7-.5-1.7-.2zm0 2.2c.8.1 1.5.4 2.2.8v-1.7c-.8.1-1.5.4-2.2.8v.1zm2.2-5.7h-2.2v2.5c.7 0 1.5.1 2.2.3v-2.8zm-.2 8.2c.1-.1.1-.3 0-.4-.5-.5-1.2-.9-2-1v3.8h2.2v-1.8c-.2-.1-.3-.3-.2-.6zm-19.8-2.8c-.7-.3-1.4-.6-2.2-.7v1.8c.7-.4 1.4-.7 2.2-.8v-.3zm-1.8 2.4c-.1.1-.1.3 0 .4.1.3 0 .6-.3.7v1.6h2.1v-3.8c-.7.2-1.3.6-1.8 1.1zm.3-4.1 1.5.4v-.6l-1.5.2zm1.5-3.7h-2.2v2.8c.7-.2 1.4-.3 2.2-.3v-2.5z"/>
    <path fill="#cca733" d="M39 26.1h3.1v1.5H39v-1.5zm0 12.2v1.5h3.1v-1.5H39m-20.1 0v1.5H22v-1.5h-3.1m0-12.2H22v1.5h-3.1v-1.5z"/>
    <path fill="#d00" d="M41.6 30.4a7.8 7.8 0 0 0-4.2 0v1.2c.6-.2 1.3-.4 2-.4a5 5 0 0 1 1.7.2l-1.7.5-1.1.7-.3 1.2c0 .2.2.4.5.5l.9.2a3 3 0 0 1 2 1c.1.1.1.3 0 .4-.1.2 0 .5.2.7l.1.1c.3.1.6 0 .7-.3.2-.5.2-1 0-1.4a3 3 0 0 0-.8-.8c-.7-.4-1.4-.7-2.2-.8h-.1l.1-.1a8.8 8.8 0 0 1 3.8-1c.3 0 .5-.3.5-.6 0-.2-.1-.4-.3-.5-.5-.4-1.2-.7-1.8-.8z"/>
    <path fill="#ccc" d="M37.4 26h-6.8v7.8h6.8V26M34 41.6a3.4 3.4 0 0 1-3.4-3.4c0 .8-.3 1.5-.7 2.1-.4.5-.9.8-1.4 1l-1.1.2h-.2c1.2.3 2.4.4 3.6.4s2.4-.1 3.6-.4l-.4.1zm-4.9-7.7h-5.2v3.6-3.6h5.2z"/>
    <path fill="#d00" d="M30.6 33.9v4.3c0 1.9 1.6 3.3 3.4 3.3h.3a3.3 3.3 0 0 0 3.1-3.3v-4.3h-6.8zm-6 6.5.8.7v-7.2h-.8v6.5zm4.5-6.5V41l.7-.7v-6.5l-.7.1zm-.8 0h-.7v7.7l.7-.2v-7.5zm-2.2 7.5.8.1v-7.7h-.8v7.6z"/>
    <path fill="#fecc00" d="M28.3 33.9v7.5l.8-.4v-7.1h-.8zm1.5 6.4c.5-.6.7-1.3.7-2.1v-4.4h-.7v6.5z"/>
    <path fill="#d00" d="M30.6 33.9V26h-6.7v4.5a8.3 8.3 0 0 0-4.4 0c-.6.2-1.2.4-1.8.8-.3.2-.4.5-.2.8.1.2.3.3.4.3l1.5.2c.8.1 1.5.3 2.2.7l.3.2h-.3c-.8.1-1.5.4-2.2.8l-.7.7c-.2.5-.2 1 0 1.4.1.3.4.4.7.3.3-.1.4-.5.3-.7a.3.3 0 0 1 0-.4c.5-.5 1.1-.9 1.9-1l1-.2c.3 0 .5-.2.5-.5.1-.4-.1-.9-.3-1.2-.3-.4-.7-.6-1.2-.8l-1.5-.4a7 7 0 0 1 3.8.2v2.2h6.7z"/>
    <path fill="#c60d1d" d="M26.4 24h1.1l-.8-1.7v-.2l-.9.2.6 1.7zm5 0h1.8l.8-1.9v-.3l-2.7-.3.1 2.5zm-4.1-1.9.9 1.9h1.9v-2.4c-.9.1-1.9.2-2.8.5 0-.1 0-.1 0 0zm7.4.3L34 24h1.1l.5-1.6-.8-.3-.1.3z"/>
    <path fill="#cca733" d="m24.6 21.6 1 2.2 1 2.1h8.3l1-2.3.6-2.2c.2-.7-.3-1.3-.9-1.5l-2.2-.6c-.6-.2-1.2-.3-1.9-.3-.2.4-.8.6-1.2.3L30 19l-2.1.3-2.3.7c-.7.1-1.1.8-1 1.4v.2zm10.8-1c.3.1.5.4.4.7l-.3 1-.4 1.7H34l.7-1.6.1-.3c.1-.6-.1-1.3-.5-1.8l1.1.3zm-2.8-.7.9.6c.4.3.6.9.6 1.4v.3l-.8 1.8h-1.8v-4.3l1.1.2zm-4.7.6.8-.6 1.4-.2V24h-1.9l-.9-1.9V22c-.1-.6.1-1.2.6-1.5zm-2.2.1 1.4-.3c-.5.5-.6 1.2-.5 1.9v.2l.8 1.7h-1.1l-.7-1.7-.4-.9c-.1-.3 0-.7.3-.8l.2-.1z"/>
    <path fill="#00319c" d="M30.8 19.6c.3 0 .6-.2.8-.4l.1-.3c-.1-.5-.5-.8-1-.7-.4.1-.7.4-.7.7l.1.3c.1.2.4.4.7.4z"/>
</svg>