<svg xmlns="http://www.w3.org/2000/svg" viewBox="0 0 512 512">
    <circle cx="256" cy="256" r="256" fill="#fff"/>
    <path fill="#0b4ea2" d="M256 512a256 256 0 0 0 240-345H16a255.4 255.4 0 0 0-16 89 256 256 0 0 0 256 256z"/>
    <path fill="#ee1c25" d="M256 512c110 0 203.9-69.5 240-167H16a256 256 0 0 0 240 167z"/>
    <path fill="#fff" d="M66.2 144.7v127.7c0 72.7 94.9 94.9 94.9 94.9S256 345 256 272.4V144.7H66.2z"/>
    <path fill="#ee1c25" d="M88.5 144.7v127.7c0 8.5 1.9 16.6 5.6 24.1h134a53.5 53.5 0 0 0 5.6-24.1V144.7H88.5z"/>
    <path fill="#fff" d="M205.6 233.7h-33.4v-22.2h22.3v-22.3h-22.3V167H150v22.2h-22.3v22.3H150v22.2h-33.4V256H150v22.3h22.2V256h33.4z"/>
    <path fill="#0b4ea2" d="M124.5 327.6c14.3 9 29 14.3 36.6 16.6a160 160 0 0 0 36.6-16.6 80.1 80.1 0 0 0 30.4-31 38.8 38.8 0 0 0-31.3-6.2 39 39 0 0 0-71.4 0 38.8 38.8 0 0 0-31.3 6.1 80 80 0 0 0 30.4 31.1z"/>
</svg>