<svg xmlns:xlink="http://www.w3.org/1999/xlink" xmlns="http://www.w3.org/2000/svg">
    <symbol id="keydrop-logo" viewBox="0 0 269.2 67.4">
        <path fill="#fff"
            d="M179.3 17.5V55h-5.2l-.3-4.2c-2.1 3.4-5.6 4.7-9.2 4.7-7.7 0-13.5-5-13.5-13.8 0-9 5.7-13.8 13.4-13.8 3.2 0 7.6 1.6 9.3 4.7V17.5h5.5zm-22.7 24.3c0 5.3 3.7 8.6 8.4 8.6 4.6 0 8.4-3.4 8.4-8.6 0-5.1-3.8-8.6-8.4-8.6-4.7 0-8.4 3.1-8.4 8.6zm35.3-13.2l.4 3.5c1.9-3.4 4.9-4.1 7.8-4.1 2.6 0 5 .9 6.5 2.3l-2.5 4.8a6.5 6.5 0 00-4.7-1.6c-3.8 0-7.1 2.4-7.1 7.2V55h-5.5V28.6h5.1zm43.4 13.2c0 7.8-5.4 13.7-13.7 13.7-8.3 0-13.6-5.9-13.6-13.7S213.4 28 221.6 28c8.1 0 13.7 6 13.7 13.8zm-21.8 0c0 4.7 3.1 8.6 8.1 8.6 5.1 0 8.1-3.9 8.1-8.6s-3.3-8.7-8.1-8.7c-5.1 0-8.1 4-8.1 8.7zm27.6 25.5V28.6h5.2l.3 4.3a11 11 0 019.3-4.8c7.9.1 13.3 5.8 13.3 13.8s-5.1 13.8-13.3 13.8c-3.2 0-7.3-1.2-9.3-4.4v16.1h-5.5v-.1zm22.7-25.5c0-5-3.3-8.4-8.4-8.4s-8.3 3.7-8.3 8.4 3.5 8.4 8.3 8.4a8 8 0 008.4-8.4zM151.1 62h13.6v5.3h-13.6V62z" />
        <path fill="#dcae64"
            d="M73.1 17.5v21.9l9.8-10.8h6.7v.3L78.2 41l13 13.6v.4h-6.8L73.1 42.8V55h-5.6V17.5h5.6zm24.5 26.3c.5 4 3.8 6.6 8.6 6.6 2.7 0 6.1-1 7.7-2.8l3.6 3.5c-2.7 3-7.3 4.5-11.4 4.5-8.7 0-14.3-5.5-14.3-14 0-8 5.6-13.8 13.9-13.8 8.5 0 14.3 5.2 13.3 16H97.6zm16.1-4.6c-.3-4.2-3.4-6.4-7.8-6.4-4 0-7.3 2.2-8.2 6.4h16zm35.4-10.6l-16.7 38.7h-6.1l5.5-12.6-10.6-26h6.4l4.6 12.5 2.6 7.5 2.8-7.4 5.3-12.6h6.2v-.1zM25 24.5h6.7v9.1H25v-9.1zm0 14h6.7V63H25V38.5zm-4.8-4.9H4.6c-2.5 0-4.6-2-4.6-4.6 0-2.5 2-4.6 4.6-4.6h15.6v9.2zm0 29.4C11.8 63 5 56.2 5 47.8v-9.3h15.2V63zm16.3-29.4h15.6c2.5 0 4.6-2 4.6-4.6 0-2.5-2-4.6-4.6-4.6H36.5v9.2zm0 29.4c8.4 0 15.2-6.8 15.2-15.2v-9.3H36.5V63zM24.4 20.1L9.2 15.8c-1.1-.3-1.3-1.9-.4-2.5L19.2 6c.7-.5 1.6-.2 1.9.6L26 18.1c.4 1.1-.5 2.3-1.6 2zm5.8-1.7L39.1.8c.5-1 1.8-1 2.3-.1l8.9 14.9c.5.9 0 2-.9 2.1l-17.8 2.8c-1.1.1-1.9-1.1-1.4-2.1z" />
    </symbol>
    <symbol id="keydrop-signet" viewBox="0 0 16 16" fill="currentColor">
        <path
            d="M10.8.2 8.5 4.8c-.1.3.1.6.4.5l4.6-.7c.2 0 .4-.3.2-.5L11.4.2c-.1-.2-.4-.2-.6 0zM7.1 5.3 3 4.2c-.3-.1-.4-.5-.2-.7l2.8-2c.2-.1.4-.1.5.2l1.3 3.1c.2.3 0 .6-.3.5zm-1 3.4H2C1.3 8.7.8 8.2.8 7.5S1.3 6.3 2 6.3h4.1v2.4zM7 6.3h2v2.4H7V6.3zm0 3.4h2V16H7V9.7zm-4.8 2.4c0 2.2 1.7 3.9 3.9 3.9V9.7H2.2v2.4zm7.7-3.4H14c.7 0 1.2-.5 1.2-1.2s-.5-1.2-1.2-1.2H9.9v2.4zm3.9 3.4c0 2.2-1.7 3.9-3.9 3.9V9.7h3.9v2.4z" />
    </symbol>
    <symbol id="user-fill" viewBox="0 0 16 16" fill="none">
        <path
            d="M13.3334 15.6471H2.66669V14.3138C2.66669 13.4297 3.01788 12.5819 3.643 11.9567C4.26812 11.3316 5.11597 10.9804 6.00002 10.9804H10C10.8841 10.9804 11.7319 11.3316 12.357 11.9567C12.9822 12.5819 13.3334 13.4297 13.3334 14.3138V15.6471ZM8.00002 9.64709C7.47473 9.64709 6.95459 9.54363 6.46929 9.34261C5.98398 9.14159 5.54303 8.84696 5.17159 8.47552C4.80016 8.10409 4.50552 7.66313 4.3045 7.17783C4.10348 6.69253 4.00002 6.17238 4.00002 5.64709C4.00002 5.12181 4.10348 4.60166 4.3045 4.11636C4.50552 3.63106 4.80016 3.1901 5.17159 2.81867C5.54303 2.44723 5.98398 2.1526 6.46929 1.95158C6.95459 1.75056 7.47473 1.64709 8.00002 1.64709C9.06089 1.64709 10.0783 2.06852 10.8284 2.81867C11.5786 3.56881 12 4.58623 12 5.64709C12 6.70796 11.5786 7.72538 10.8284 8.47552C10.0783 9.22567 9.06089 9.64709 8.00002 9.64709V9.64709Z"
            fill="currentColor" />
    </symbol>
    <symbol id="notification-fill" viewBox="0 0 16 16" fill="none">
        <path
            d="M13.8334 12.3138H15.1667V13.6472H1.83337V12.3138H3.16671V7.64718C3.16671 6.23269 3.72861 4.87613 4.7288 3.87594C5.729 2.87575 7.08555 2.31384 8.50004 2.31384C9.91453 2.31384 11.2711 2.87575 12.2713 3.87594C13.2715 4.87613 13.8334 6.23269 13.8334 7.64718V12.3138ZM6.50004 14.9805H10.5V16.3138H6.50004V14.9805Z"
            fill="currentColor" />
    </symbol>
    <symbol id="settings-fill" viewBox="0 0 16 16" fill="none">
        <path
            d="M6.86354 0.483931C7.94245 0.257687 9.0565 0.257142 10.1356 0.482331C10.2075 0.956859 10.3854 1.40908 10.6561 1.80539C10.9269 2.2017 11.2834 2.53189 11.6993 2.77144C12.1149 3.01181 12.5793 3.15541 13.058 3.19155C13.5367 3.22769 14.0174 3.15545 14.4643 2.98019C15.1988 3.80246 15.7551 4.76784 16.0983 5.81558C15.7235 6.11518 15.421 6.49539 15.2133 6.92797C15.0056 7.36055 14.898 7.83438 14.8986 8.31424C14.8986 9.32522 15.3673 10.2266 16.0999 10.8129C15.7547 11.8598 15.1976 12.8244 14.4635 13.6467C14.0167 13.4716 13.5361 13.3994 13.0576 13.4355C12.579 13.4717 12.1147 13.6152 11.6993 13.8554C11.2837 14.0949 10.9275 14.4249 10.6569 14.8209C10.3864 15.2169 10.2085 15.6688 10.1364 16.143C9.05763 16.3697 7.94358 16.3708 6.86434 16.1462C6.79279 15.6712 6.61504 15.2185 6.34431 14.8218C6.07358 14.425 5.71685 14.0944 5.30067 13.8546C4.88506 13.6144 4.42062 13.4709 3.94192 13.4349C3.46321 13.3989 2.98255 13.4713 2.53567 13.6467C1.80111 12.8242 1.24475 11.8585 0.901624 10.8105C1.27626 10.5111 1.57864 10.1311 1.78634 9.69883C1.99404 9.26654 2.10171 8.79303 2.10137 8.31344C2.10176 7.83345 1.99395 7.35954 1.78597 6.92695C1.57798 6.49436 1.27516 6.11422 0.900024 5.81478C1.24528 4.7679 1.80232 3.8033 2.53647 2.98099C2.9833 3.15612 3.46385 3.2283 3.9424 3.19216C4.42096 3.15601 4.88522 3.01249 5.30067 2.77224C5.71622 2.53277 6.0725 2.20278 6.34306 1.80677C6.61362 1.41076 6.79151 0.958902 6.86354 0.484731V0.483931ZM8.49998 10.7137C9.13637 10.7137 9.74668 10.4609 10.1967 10.0109C10.6467 9.56094 10.8995 8.95062 10.8995 8.31424C10.8995 7.67786 10.6467 7.06754 10.1967 6.61755C9.74668 6.16756 9.13637 5.91476 8.49998 5.91476C7.8636 5.91476 7.25328 6.16756 6.80329 6.61755C6.3533 7.06754 6.1005 7.67786 6.1005 8.31424C6.1005 8.95062 6.3533 9.56094 6.80329 10.0109C7.25328 10.4609 7.8636 10.7137 8.49998 10.7137Z"
            fill="currentColor" />
    </symbol>
    <symbol id="wallet-fill" viewBox="0 0 24 24" fill="none">
        <path
            d="M22.9079 6.44885H15.9079C14.3166 6.44885 12.7905 7.08099 11.6653 8.20621C10.54 9.33143 9.9079 10.8576 9.9079 12.4489C9.9079 14.0402 10.54 15.5663 11.6653 16.6915C12.7905 17.8167 14.3166 18.4489 15.9079 18.4489H22.9079V20.4489C22.9079 20.7141 22.8025 20.9684 22.615 21.156C22.4275 21.3435 22.1731 21.4489 21.9079 21.4489H3.9079C3.64268 21.4489 3.38833 21.3435 3.20079 21.156C3.01325 20.9684 2.9079 20.7141 2.9079 20.4489V4.44885C2.9079 4.18364 3.01325 3.92928 3.20079 3.74175C3.38833 3.55421 3.64268 3.44885 3.9079 3.44885H21.9079C22.1731 3.44885 22.4275 3.55421 22.615 3.74175C22.8025 3.92928 22.9079 4.18364 22.9079 4.44885V6.44885ZM15.9079 8.44885H23.9079V16.4489H15.9079C14.847 16.4489 13.8296 16.0274 13.0795 15.2773C12.3293 14.5271 11.9079 13.5097 11.9079 12.4489C11.9079 11.388 12.3293 10.3706 13.0795 9.62043C13.8296 8.87028 14.847 8.44885 15.9079 8.44885ZM15.9079 11.4489V13.4489H18.9079V11.4489H15.9079Z"
            fill="currentColor" />
    </symbol>
    <symbol id="cases-fill" viewBox="0 0 40 40" fill="none">
        <path
            d="M11.3979 18.9151H9.93955V30.5818C9.93955 31.3553 10.2468 32.0972 10.7938 32.6442C11.3408 33.1912 12.0827 33.4985 12.8562 33.4985H20.1479V18.9151H11.3979ZM30.3562 18.9151H23.0646V33.4985H30.3562C31.1298 33.4985 31.8716 33.1912 32.4186 32.6442C32.9656 32.0972 33.2729 31.3553 33.2729 30.5818V18.9151H30.3562ZM31.5098 11.6235C31.7237 10.9144 31.8265 10.1765 31.8146 9.43595C31.8146 6.62137 29.525 4.33179 26.7104 4.33179C24.345 4.33179 22.7656 6.49304 21.7462 8.83075C20.7414 6.62137 19.0818 4.33179 16.5021 4.33179C13.6875 4.33179 11.3979 6.62137 11.3979 9.43595C11.3979 10.3051 11.5131 11.0241 11.7027 11.6235H7.02289V17.4568H20.1479V14.5401H23.0646V17.4568H36.1896V11.6235H31.5098ZM14.3146 9.43595C14.3146 8.22991 15.296 7.24845 16.5021 7.24845C17.7971 7.24845 19.0016 9.47241 19.7075 11.6235H15.7729C15.2275 11.6235 14.3146 11.6235 14.3146 9.43595ZM26.7104 7.24845C27.9164 7.24845 28.8979 8.22991 28.8979 9.43595C28.8979 11.6235 27.985 11.6235 27.4396 11.6235H23.8273C24.571 9.32512 25.6516 7.24845 26.7104 7.24845Z"
            fill="currentColor" />
    </symbol>
    <symbol id="upgrades-fill" viewBox="0 0 40 40" fill="none">
        <path
            d="M22.9309 10.7465C27.0265 11.4375 30.4081 14.8192 31.0991 18.9147H37.6337C36.8643 11.2088 30.6368 4.98136 22.9309 4.21191V10.7465Z"
            fill="currentColor" />
        <path
            d="M31.0985 22.1822C30.3176 26.8103 26.227 30.2671 21.3799 30.2671C15.9742 30.2671 11.578 25.8709 11.578 20.4652C11.578 15.6182 15.0348 11.5275 19.663 10.7466V4.21204C11.4196 5.03539 5.04346 12.0094 5.04346 20.4652C5.04346 29.4731 12.372 36.8017 21.3799 36.8017C29.8357 36.8017 36.8097 30.4255 37.6331 22.1822H31.0985Z"
            fill="currentColor" />
    </symbol>
    <symbol id="contracts-fill" viewBox="0 0 40 40" fill="none">
        <path
            d="M10.0435 6.91402V13.5807H30.0435V6.91402H33.3885C34.3018 6.91402 35.0435 7.65569 35.0435 8.56902V35.259C35.0435 36.1724 34.3018 36.914 33.3885 36.914H6.69846C5.78512 36.914 5.04346 36.1724 5.04346 35.259V8.56902C5.04346 7.65569 5.78512 6.91402 6.69846 6.91402H10.0435ZM15.0435 28.5807H11.7101V31.914H15.0435V28.5807ZM15.0435 23.5807H11.7101V26.914H15.0435V23.5807ZM15.0435 18.5807H11.7101V21.914H15.0435V18.5807ZM26.7101 3.58069V10.2474H13.3768V3.58069H26.7101Z"
            fill="currentColor" />
    </symbol>
    <symbol id="battles-fill" viewBox="0 0 30 30" fill="none">
        <path
            d="M7.25624 17.3722L12.8093 23.0942L10.589 25.3823L12.8125 27.6721L10.5906 29.9602L6.70155 25.9552L2.25624 30.5331L0.0343628 28.2449L4.47968 23.6654L0.590617 19.6619L2.81249 17.3738L5.03436 19.6603L7.25466 17.3722H7.25624ZM0.892314 0.533081L6.46428 0.537936L25.0328 19.6619L27.2562 17.3738L29.4781 19.6619L25.5906 23.667L30.0344 28.2449L27.8125 30.5331L23.3672 25.9552L19.4781 29.9602L17.2562 27.6721L19.4781 25.3823L0.897028 6.24698L0.892314 0.533081ZM23.6092 0.533081L29.1764 0.537936L29.1796 6.23889L22.8109 12.7959L17.2547 7.07551L23.6092 0.533081Z"
            fill="currentColor" />
    </symbol>
    <symbol id="daily-fill" viewBox="0 0 40 40" fill="none">
        <path
            d="M7.61497 17.3903H33.3293V31.6817C33.3293 32.4674 32.6935 33.1045 31.9107 33.1045H9.03354C8.84695 33.1044 8.66222 33.0674 8.48991 32.9958C8.31761 32.9241 8.16111 32.8193 8.02936 32.6871C7.89762 32.555 7.79321 32.3982 7.72211 32.2256C7.651 32.0531 7.6146 31.8683 7.61497 31.6817V17.3903ZM16.1864 20.2474V23.1045H24.7578V20.2474H16.1864ZM6.1864 8.81883C6.1864 8.03026 6.8364 7.39026 7.60354 7.39026H33.3407C34.1235 7.39026 34.7578 8.02454 34.7578 8.81883V14.5331H6.1864V8.81883Z"
            fill="currentColor" />
    </symbol>
    <symbol id="hand-with-coins-fill" viewBox="0 0 20 20" fill="none">
        <path
            d="M8.55852 10.2261H10.1085C10.961 10.2261 11.7786 10.5648 12.3814 11.1676C12.9842 11.7704 13.3228 12.5879 13.3228 13.4404H8.32209L8.32281 14.1547H14.0371V13.4404C14.0348 12.6804 13.8153 11.9369 13.4042 11.2976H15.4657C16.1409 11.2974 16.8023 11.4886 17.3732 11.849C17.9441 12.2095 18.4012 12.7244 18.6914 13.334C17.0021 15.5633 14.2671 17.0119 11.1799 17.0119C9.20781 17.0119 7.53709 16.5904 6.17995 15.8511V9.20543C7.04896 9.32991 7.86957 9.68206 8.55852 10.2261ZM5.46566 15.5833C5.46566 15.7727 5.39041 15.9544 5.25645 16.0884C5.1225 16.2223 4.94082 16.2976 4.75138 16.2976H3.32281C3.13337 16.2976 2.95168 16.2223 2.81773 16.0884C2.68378 15.9544 2.60852 15.7727 2.60852 15.5833V9.15472C2.60852 8.96528 2.68378 8.78359 2.81773 8.64964C2.95168 8.51568 3.13337 8.44043 3.32281 8.44043H4.75138C4.94082 8.44043 5.1225 8.51568 5.25645 8.64964C5.39041 8.78359 5.46566 8.96528 5.46566 9.15472V15.5833ZM14.7514 5.58329C15.3197 5.58329 15.8647 5.80905 16.2666 6.21092C16.6685 6.61278 16.8942 7.15782 16.8942 7.72614C16.8942 8.29447 16.6685 8.83951 16.2666 9.24137C15.8647 9.64324 15.3197 9.869 14.7514 9.869C14.1831 9.869 13.638 9.64324 13.2361 9.24137C12.8343 8.83951 12.6085 8.29447 12.6085 7.72614C12.6085 7.15782 12.8343 6.61278 13.2361 6.21092C13.638 5.80905 14.1831 5.58329 14.7514 5.58329ZM9.75138 3.44043C10.3197 3.44043 10.8647 3.66619 11.2666 4.06806C11.6685 4.46992 11.8942 5.01497 11.8942 5.58329C11.8942 6.15161 11.6685 6.69665 11.2666 7.09852C10.8647 7.50038 10.3197 7.72614 9.75138 7.72614C9.18306 7.72614 8.63801 7.50038 8.23615 7.09852C7.83429 6.69665 7.60852 6.15161 7.60852 5.58329C7.60852 5.01497 7.83429 4.46992 8.23615 4.06806C8.63801 3.66619 9.18306 3.44043 9.75138 3.44043Z"
            fill="currentColor" />
    </symbol>
    <symbol id="success-fill" viewBox="0 0 18 18" fill="none">
        <path
            d="M9.2832 16.7291C5.14095 16.7291 1.7832 13.3714 1.7832 9.22913C1.7832 5.08688 5.14095 1.72913 9.2832 1.72913C13.4255 1.72913 16.7832 5.08688 16.7832 9.22913C16.7832 13.3714 13.4255 16.7291 9.2832 16.7291ZM8.53545 12.2291L13.838 6.92588L12.7775 5.86538L8.53545 10.1081L6.4137 7.98638L5.3532 9.04688L8.53545 12.2291Z"
            fill="currentColor" />
    </symbol>
    <symbol id="success-fill" viewBox="0 0 18 18" fill="none">
        <path
            d="M9.00562 17.1116C4.86337 17.1116 1.50562 13.7538 1.50562 9.61157C1.50562 5.46932 4.86337 2.11157 9.00562 2.11157C13.1479 2.11157 16.5056 5.46932 16.5056 9.61157C16.5056 13.7538 13.1479 17.1116 9.00562 17.1116ZM5.25562 7.36157H6.75562V10.3616H8.25562V7.36157H9.75562L7.50562 4.73657L5.25562 7.36157ZM12.7556 11.8616H11.2556V8.86157H9.75562V11.8616H8.25562L10.5056 14.4866L12.7556 11.8616Z"
            fill="currentColor" />
    </symbol>
</svg>